<?xml version="1.0" encoding="UTF-8"?>
<svg width="26px" height="27px" viewBox="0 0 26 27" version="1.1" xmlns="http://www.w3.org/2000/svg" xmlns:xlink="http://www.w3.org/1999/xlink">
    <!-- Generator: Sketch 61.2 (89653) - https://sketch.com -->
    <title>Group 2</title>
    <desc>Created with Sketch.</desc>
    <g id="Symbols" stroke="none" stroke-width="1" fill="none" fill-rule="evenodd">
        <g id="button/google" transform="translate(-24.000000, -10.000000)" fill-rule="nonzero">
            <g id="Stacked-Group" transform="translate(24.000000, 10.000000)">
                <g id="Group-2">
                    <path d="M25.7198462,13.4211918 C25.7198462,12.5293969 25.6475385,11.6327815 25.4932821,10.7554482 L13.1190256,10.7554482 L13.1190256,15.8073456 L20.2051795,15.8073456 C19.9111282,17.4366789 18.9663077,18.8780123 17.5828205,19.7939097 L17.5828205,23.0718584 L21.8104103,23.0718584 C24.2929744,20.7869354 25.7198462,17.4125764 25.7198462,13.4211918 Z" id="Path" fill="#4285F4"></path>
                    <path d="M13.1190256,26.2389354 C16.6572821,26.2389354 19.6411795,25.0771918 21.8152308,23.0718584 L17.587641,19.7939097 C16.4114359,20.5941148 14.8929744,21.0472431 13.1238462,21.0472431 C9.70128205,21.0472431 6.79933333,18.7382174 5.75810256,15.6338072 L1.39553846,15.6338072 L1.39553846,19.0129866 C3.62261538,23.4430379 8.15871795,26.2389354 13.1190256,26.2389354 Z" id="Path" fill="#34A853"></path>
                    <path d="M5.75328205,15.6338072 C5.20374359,14.0044738 5.20374359,12.2401661 5.75328205,10.6108328 L5.75328205,7.23165331 L1.39553846,7.23165331 C-0.465179487,10.9386277 -0.465179487,15.3060123 1.39553846,19.0129866 L5.75328205,15.6338072 Z" id="Path" fill="#FBBC04"></path>
                    <path d="M13.1190256,5.19257638 C14.9893846,5.16365331 16.7970769,5.86744818 18.151641,7.15934561 L18.151641,7.15934561 L21.8971795,3.41380715 C19.5254872,1.18673023 16.3776923,-0.0376800267 13.1190256,0.000884075904 C8.15871795,0.000884075904 3.62261538,2.79678151 1.39553846,7.23165331 L5.75328205,10.6108328 C6.78969231,7.50160202 9.69646154,5.19257638 13.1190256,5.19257638 Z" id="Path" fill="#EA4335"></path>
                </g>
            </g>
        </g>
    </g>
</svg>