<?xml version="1.0" encoding="UTF-8"?>
<svg width="200px" height="234px" viewBox="0 0 200 234" version="1.1" xmlns="http://www.w3.org/2000/svg" xmlns:xlink="http://www.w3.org/1999/xlink">
    <title>Group</title>
    <defs>
        <path d="M59.2713136,0 C66.104843,0.124230769 72.4480588,3.6008655 76.2561671,9.31365361 C80.0642754,15.0246154 80.8560423,22.248269 78.3754149,28.6571156 L39.6333142,132.40625 C36.6914279,140.479423 29.0752108,145.867019 20.5292129,145.92 C13.6938671,145.795769 7.35065184,142.319134 3.54254355,136.606346 C-0.263748878,130.895385 -1.05551628,123.671731 1.42329569,117.262884 L40.1617642,13.5137499 C43.1054664,5.44057669 50.7234993,0.0548079262 59.2713136,0 L59.2713136,0 Z" id="path-1"></path>
    </defs>
    <g id="Page-1" stroke="none" stroke-width="1" fill="none" fill-rule="evenodd">
        <g id="login" transform="translate(-96.000000, -128.000000)">
            <g id="Group" transform="translate(104.800000, 136.000000)">
                <path d="M38.8022222,217.984222 C30.6998438,217.984222 24.1108865,211.429782 23.9432706,203.281314 L23.94,202.963045 L23.94,90.3042218 L25.209,91.159 L18.8380194,83.2567749 C15.7379245,79.6500975 14.3319817,74.9130227 14.9712149,70.2216025 C15.3287508,67.598616 16.3076035,65.1281659 17.7930122,62.9936667 L2.84217094e-14,46.6697501 L5.02038462,41.04 L23.4177413,57.9190772 C23.694476,57.7670302 23.9749485,57.623215 24.2587799,57.4876946 L12.54,35.4111358 L19.178392,31.92 L25.3149025,43.4796988 C25.6305853,42.0321439 26.3451208,40.6998477 27.3777891,39.6362851 C29.9907005,36.939908 34.1450287,36.5147453 37.2424897,38.625834 L37.2424897,38.625834 L27.3339054,28.3243842 C24.3114119,25.162353 24.3315254,20.1542696 27.3777891,17.0161646 C28.8332668,15.5142917 30.8299773,14.6676482 32.9144554,14.6676482 C35.0007618,14.6676482 36.995644,15.5142917 38.4511216,17.0161646 L38.4511216,17.0161646 L43.9493897,22.6518694 L43.9493897,7.57424325 C43.8890492,4.88890908 45.2787012,2.38210673 47.5789413,1.02011414 C49.8791809,-0.340038045 52.7316245,-0.340038045 55.0318645,1.02011414 C57.333933,2.38210673 58.7217562,4.88890908 58.6614161,7.57424325 L58.6614161,7.57424325 L58.6614161,22.6518694 L64.1999107,16.9977596 C65.6517317,15.5014084 67.6411282,14.6584451 69.7182923,14.6584451 C71.7954564,14.6584451 73.784853,15.5014084 75.2366735,16.9977596 C78.2811088,20.145067 78.2811088,25.1586717 75.2366735,28.3059792 L75.2366735,28.3059792 L65.463,38.319 L81.225,22.8 L81.228,22.799 L81.2288268,6.84664644 L121.899905,6.84664644 L121.899,22.8 L134.898,35.712 L142.761764,14.6537499 C145.705466,6.58057669 153.323499,1.19480793 161.871314,1.14 C168.704843,1.26423077 175.048059,4.7408655 178.856167,10.4536536 C182.664275,16.1646154 183.456042,23.388269 180.975415,29.7971156 L173.598,49.553 L173.805819,49.3951369 L158.459,90.415 L158.46,202.963045 C158.46,211.153426 151.82535,217.813697 143.577991,217.980999 L143.26,217.984222 L38.8022222,217.984222 Z" id="Combined-Shape" stroke="#000000" stroke-width="16" fill="#000000" fill-rule="nonzero" opacity="0.0783807664" stroke-linejoin="round"></path>
                <g id="Group-Copy-2">
                    <path d="M64.7210306,61.7741864 L75.2366735,50.9224184 C78.2774516,47.7751109 78.2774516,42.7633466 75.2366735,39.6141988 C73.784853,38.1178476 71.7954564,37.2748843 69.7182923,37.2748843 C67.6411282,37.2748843 65.6517317,38.1178476 64.1999107,39.6141988 L75.2366735,28.3059792 C78.2811088,25.1586717 78.2811088,20.145067 75.2366735,16.9977596 C73.784853,15.5014084 71.7954564,14.6584451 69.7182923,14.6584451 C67.6411282,14.6584451 65.6517317,15.5014084 64.1999107,16.9977596 L58.6614161,22.6518694 L58.6614161,7.57424325 C58.7217562,4.88890908 57.333933,2.38210673 55.0318645,1.02011414 C52.7316245,-0.340038045 49.8791809,-0.340038045 47.5789413,1.02011414 C45.2787012,2.38210673 43.8890492,4.88890908 43.9493897,7.57424325 L43.9493897,22.6518694 L38.4511216,17.0161646 C36.995644,15.5142917 35.0007618,14.6676482 32.9144554,14.6676482 C30.8299773,14.6676482 28.8332668,15.5142917 27.3777891,17.0161646 C24.3315254,20.1542696 24.3114119,25.162353 27.3339054,28.3243842 L37.2424897,38.625834 C34.1450287,36.5147453 29.9907005,36.939908 27.3777891,39.6362851 C26.2733815,40.7737332 25.5328433,42.2185496 25.2549129,43.7830003 C24.7557349,46.3615835 25.5291861,49.0229908 27.3302482,50.9224184 L40.0089947,64.1153412 C39.465933,63.5576603 38.8863019,62.9576476 38.3139848,62.3521127 C36.887763,60.8447186 34.9129943,59.9851907 32.8449725,59.9723069 C30.7769508,59.9594235 28.7930398,60.7950241 27.3485333,62.2840132 C24.329697,65.3926696 24.329697,70.3621016 27.3485333,73.470758 L51.4919088,98.04 L75.2366735,73.5388575 C78.2774516,70.3915501 78.2774516,65.3797858 75.2366735,62.230638 C72.3988577,59.3115568 67.7965497,59.1109386 64.7210306,61.7741864 Z" id="Path-2" fill="#70942D" fill-rule="nonzero"></path>
                    <g id="Group-4" transform="translate(62.700000, 6.846646)" fill-rule="nonzero">
                        <path d="M59.1986958,15.9533536 L78.0086958,34.6366869 L78.0086958,150.473354 L5.1159077e-13,150.473354 L5.1159077e-13,34.1933536 L0.001,34.1923536 L18.525,15.9533536 L59.1986958,15.9533536 Z" id="Combined-Shape" fill="#63A6D3"></path>
                        <polygon id="Path" fill-opacity="0.0695203234" fill="#000000" points="40.3886958 150.473354 78.0086958 150.473354 78.0086958 34.6366869 59.1986958 15.9533536 41.04 34.1933536"></polygon>
                        <polygon id="Path" fill="#D6D9DB" points="18.5288268 0 59.1999047 0 59.1999047 15.96 18.5288268 15.96"></polygon>
                    </g>
                    <polygon id="Path" fill="#579FD0" fill-rule="nonzero" points="62.7 111.768511 62.7 158.46 103.74 158.46 103.74 70.68"></polygon>
                    <g id="Group-2" transform="translate(102.600000, 1.140000)">
                        <mask id="mask-2" fill="white">
                            <use xlink:href="#path-1"></use>
                        </mask>
                        <use id="Path" fill="#D68033" fill-rule="nonzero" xlink:href="#path-1"></use>
                        <path d="M7.65376692,100.494618 C5.16685209,106.913171 5.96120766,114.147766 9.77994228,119.867377 C13.6004987,125.588818 19.964449,129.070718 26.8221384,129.195137 C35.3960719,129.142076 43.0371852,123.74632 45.9886881,115.66092 L71.2058187,48.2551369 C55.8634695,60.0602973 37.8301509,67.8291612 18.7401218,70.859128 L7.65376692,100.494618 Z" id="Path" fill="#D17726" fill-rule="nonzero" mask="url(#mask-2)"></path>
                    </g>
                    <polygon id="Path" fill="#88B337" fill-rule="nonzero" points="12.54 35.4111358 19.178392 31.92 33.06 58.0706881 26.4216075 61.56"></polygon>
                    <polygon id="Path" fill="#88B337" fill-rule="nonzero" points="0 46.6697501 5.02038462 41.04 26.22 60.4902499 21.2014422 66.12"></polygon>
                    <path d="M76.3800637,143.509295 C73.0675073,145.689737 68.6168946,145.001272 66.1338628,141.926009 L18.8380194,83.2567749 C15.7379245,79.6500975 14.3319817,74.9130227 14.9712149,70.2216025 C15.6104475,65.5320083 18.2357362,61.3300005 22.1912209,58.6637977 C26.1411626,56.024988 31.0518016,55.199561 35.6612985,56.3975259 C40.2726432,57.5954908 44.135753,60.7017994 46.2622186,64.9202426 L79.0700148,133.982187 C80.686572,137.377029 79.5429732,141.429292 76.3837589,143.509295 L76.3800637,143.509295 Z" id="Path" fill="#FF7230" fill-rule="nonzero"></path>
                    <polygon id="Path" fill="#DE5718" fill-rule="nonzero" points="31.9440037 72.96 19.38 82.9584979 23.9956069 88.92 36.48 78.9903673"></polygon>
                    <polygon id="Path" fill="#DE5718" fill-rule="nonzero" points="43.2552375 90.06 31.92 98.9909422 36.5886338 104.88 47.88 95.9857955"></polygon>
                    <path d="M96.9,93.48 C96.9,104.813001 87.7130006,114 76.38,114 C65.0469994,114 55.86,104.813001 55.86,93.48 C55.86,82.1469994 65.0469994,72.96 76.38,72.96 C87.7130006,72.96 96.9,82.1469994 96.9,93.48 Z" id="Path" fill="#FF9B30" fill-rule="nonzero"></path>
                    <path d="M84.3957559,75.24 C86.0981414,82.9171069 83.8093585,90.9286332 78.3008876,96.5792309 C72.7905839,102.229829 64.7917562,104.767055 57,103.334867 C61.2550463,111.068317 70.0235206,115.234019 78.7663403,113.676424 C87.50916,112.120647 94.2673907,105.188714 95.5446375,96.4701815 C96.8218844,87.7516486 92.3304467,79.2003258 84.3957559,75.24 Z" id="Path" fill="#F28E22" fill-rule="nonzero"></path>
                    <g id="Group-3" transform="translate(23.820000, 90.060000)" fill-rule="nonzero">
                        <path d="M14.9822222,127.924222 C6.77461806,127.924222 0.12,121.198431 0.12,112.903045 L0.12,112.903045 L0.12,0.244221796 L11.2666667,7.75481003 L22.4133333,0.244221796 L33.56,7.75481003 L44.7066667,0.244221796 L55.8533333,7.75481003 L67,0.244221796 L78.1466667,7.75481003 L89.2933333,0.244221796 L100.44,7.75481003 L111.84,0.244221796 L123.24,7.75481003 L134.64,0.244221796 L134.64,112.903045 C134.64,121.198431 127.834141,127.924222 119.44,127.924222 L119.44,127.924222 Z" id="Combined-Shape" fill="#F0AE62"></path>
                        <path d="M123.24,7.75481003 L111.84,0.244221796 L100.44,7.75481003 L100.44,127.924222 L119.44,127.924222 C127.834141,127.924222 134.64,121.198431 134.64,112.903045 L134.64,0.244221796 L123.24,7.75481003 Z" id="Path" fill-opacity="0.116750437" fill="#000000" opacity="0.608561198"></path>
                    </g>
                </g>
            </g>
        </g>
    </g>
</svg>