<?xml version="1.0" encoding="UTF-8"?>
<svg width="228px" height="208px" viewBox="0 0 228 208" version="1.1" xmlns="http://www.w3.org/2000/svg" xmlns:xlink="http://www.w3.org/1999/xlink">
    <!-- Generator: Sketch 61.2 (89653) - https://sketch.com -->
    <title>shopping-basket</title>
    <desc>Created with Sketch.</desc>
    <g id="Page-1" stroke="none" stroke-width="1" fill="none" fill-rule="evenodd">
        <g id="shopping-basket" fill-rule="nonzero">
            <g id="prod3" transform="translate(54.000000, 21.000000)">
                <path d="M109.882094,50.2851176 L106.55304,60.2335875 C102.773537,71.5292645 90.4737183,77.6710493 79.2133958,73.878184 L71.1390852,71.1556842 L14.7170861,52.1543565 C3.45676354,48.3614912 -2.65894031,36.0137264 1.11611971,24.7180494 L4.44517358,14.7695795 C6.73517528,7.92209357 12.1561046,2.97104024 18.5747728,0.977423232 C22.7496391,-0.323866582 27.3478559,-0.374687767 31.7848175,1.12052499 L96.2855694,22.8492564 C107.541894,26.6416758 113.661596,38.9849826 109.882094,50.2851176 Z" id="Path" fill="#78B9EB"></path>
                <path d="M76,67.1843083 L71.5511865,71 L14.8023407,52.0469378 C3.47678821,48.2637069 -2.67434327,35.9473069 1.12258528,24.6803222 L4.47092401,14.7571226 C6.77419144,7.92703007 12.2265236,2.98855299 18.6823745,1 L76,67.1843083 Z" id="Path" fill="#5AAAE7"></path>
            </g>
            <g id="prod2" transform="translate(0.000000, 8.000000)">
                <polygon id="Path" fill="#C70024" points="118 85.6012874 80.2565565 118.094995 74.556659 123 5 42.4036073 10.7043526 37.4937081 48.4477961 5"></polygon>
                <polygon id="Path" fill="#FF0C38" points="118 85.5335854 80.3605566 118 11 37.4664146 48.6394434 5"></polygon>
                <path d="M53.1758053,10.3852643 L9.70494347,47.7321535 C7.50643364,49.6179396 4.15523289,49.372201 2.25892836,47.1806965 L1.27373012,46.0410783 C-0.622574417,43.8495738 -0.371559917,40.5090514 1.82694991,38.6187892 L5.2661629,35.6627647 L45.2933214,1.27189996 C47.4729714,-0.600010138 50.7729814,-0.377547365 52.6787158,1.75352962 C52.702066,1.77680541 52.7254162,1.80008119 52.7438269,1.82290936 L53.7245347,2.96252751 C55.6203902,5.15492724 55.3743152,8.49500212 53.1758053,10.3852643 Z" id="Path" fill="#A5001E"></path>
                <path d="M52,1.73409725 L12.3166802,35.7438472 C10.1604474,37.595013 6.88915197,37.3701464 5,35.2675549 L44.6788684,1.25780494 C46.8399977,-0.593360908 50.1112932,-0.373363437 52,1.73409725 Z" id="Path" fill="#C70024"></path>
                <circle id="Oval" fill="#A5001E" cx="57.5" cy="59.5" r="20.5"></circle>
                <path d="M71.6714087,58.5298902 L68.1710091,55.8405537 L69.3264503,51.2040534 C69.7810943,49.3803663 68.6355171,47.541354 66.7680694,47.0973639 C64.8997249,46.6529359 63.0179295,47.7721063 62.5628372,49.5957934 L61.7835757,52.7221143 C60.4658257,52.4116715 58.9059576,52.1739135 57.204854,52.1739135 C52.7301533,52.1739135 46.527447,53.8132616 42.3894699,61.6238094 C41.6030345,63.1085928 42.0383987,64.93228 43.4175749,65.9235952 C43.8556293,66.2384166 47.848784,69 53.0588062,69 C56.5807274,69 61.3015814,67.7293301 65.2440706,62.2420678 L67.3670874,63.8730965 C68.0051134,64.3634998 68.7633016,64.6008199 69.5165579,64.6008199 C70.5473531,64.6008199 71.567836,64.1559541 72.2542855,63.3034406 C73.4433543,61.8274143 73.1824048,59.6902193 71.6714087,58.5298902 Z M53.0588062,62.2009089 C52.180904,62.2009089 51.3406646,62.0480958 50.5923404,61.8326686 C52.372805,59.9130901 54.5585931,58.971691 57.204854,58.971691 C57.8141844,58.971691 58.4019933,59.0220449 58.9525877,59.1026111 C57.2348945,61.1614291 55.2620806,62.2009089 53.0588062,62.2009089 Z" id="Shape" fill="#FFCD00"></path>
            </g>
            <g id="prod1" transform="translate(105.000000, 0.000000)">
                <path d="M106.105081,20.6452692 L58.55003,0.628184222 C54.4807482,-1.08443366 49.7931388,0.825159789 48.0799212,4.89301721 L41.4686756,20.5917917 C41.4200832,20.6154109 41.4183,20.6163022 41.4668924,20.592683 L22.0201119,36.1225576 C21.3567583,36.6519851 20.7326354,37.2299881 20.161117,37.845871 C18.7555029,39.3476983 17.6204907,41.091957 16.8171553,42.9997679 L0.928321563,80.7272738 C-1.60205132,86.7359199 1.21809295,93.6550209 7.22884306,96.1849537 L18.4322964,100.899889 L18.4318506,100.900781 L73.4910884,124.072148 C79.5022843,126.601636 86.4269287,123.781587 88.9573016,117.772495 L104.858618,80.015577 C105.982931,77.34482 106.426504,74.4369793 106.148323,71.5527579 L103.761499,46.8091506 L110.371853,31.1126043 C112.084624,27.04341 110.174362,22.3574415 106.105081,20.6452692 Z" id="Path" fill="#FF728B"></path>
                <path d="M73.1872441,124.073137 L18,100.929417 L38.5174865,52.3816848 C39.6533501,49.6945295 41.4465133,47.3327527 43.7334331,45.5126802 L63.2276593,30 L103.526689,46.9005467 L105.919063,71.615966 C106.19789,74.4967461 105.753733,77.4015623 104.626359,80.0686875 L88.688074,117.780556 C86.1531589,123.782477 79.2124154,126.600051 73.1872441,124.073137 Z" id="Path" fill="#FF3F62"></path>
                <path d="M104,47.0954739 L84.8585033,62.8161039 C84.235616,63.3289019 83.6533907,63.8785185 83.1154019,64.4662844 C81.7561314,65.9305977 80.6604931,67.6242506 79.8767454,69.4722752 L59.2977821,118 L7.24558345,96.244678 C1.22091378,93.7268221 -1.60576132,86.8390932 0.93047135,80.8580764 L16.8561001,43.3040514 C17.6612958,41.4050131 18.7989365,39.6687749 20.2078057,38.1738534 C20.7806475,37.5603589 21.4062159,36.9850137 22.0711056,36.4584642 L41.5629205,21 L104,47.0954739 Z" id="Path" fill="#FF728B"></path>
                <path d="M83,64.1335979 C81.6400871,65.5890653 80.5439311,67.2724868 79.7598129,69.1093474 L69.9891827,92 L7,65.8452381 L16.709385,43.0992063 C17.5149613,41.2116402 18.6531396,39.4858907 20.0626746,38 L83,64.1335979 Z" id="Path" fill="#FFA5B5"></path>
                <path d="M105.920007,71.6817875 L103.53303,47 L84.4665876,62.7550891 C83.8446913,63.2703303 83.2641953,63.8180242 82.7295515,64.4070618 C81.3749126,65.874988 80.2829214,67.57275 79.49943,69.4269959 L59,118.059275 L73.3067315,124.073238 C79.3106798,126.599209 86.2267723,123.783387 88.7517515,117.792541 L104.629918,80.1256972 C105.753961,77.461469 106.196455,74.5625148 105.920007,71.6817875 Z" id="Path" fill="#FF0C38"></path>
                <path d="M49.0255691,66.7327688 C49.1856504,70.7345434 45.2252033,73.7308671 41.449878,72.3448671 C41.3635772,72.3132659 41.2777236,72.2794393 41.1918699,72.2433873 C41.1064634,72.2073353 41.0219512,72.169948 40.9392276,72.1303353 C37.3047561,70.4114104 36.6894715,65.4976532 39.6773577,62.8146705 L46.3113415,56.8576301 C47.2002846,56.0591445 48.6213415,56.6551156 48.669187,57.8457225 L49.0255691,66.7327688 Z" id="Path" fill="#FF3F62"></path>
                <path d="M54.6592683,25.5938497 L54.455813,26.0870058 L34.9478049,41.5982775 C34.2815447,42.1279306 33.6564228,42.7038728 33.0827236,43.3212081 C31.6755285,44.8184798 30.5370732,46.5645549 29.731748,48.4673006 L9.56597561,96.5860694 L7.62666667,95.7751214 C1.60081301,93.2505896 -1.23191057,86.3401734 1.30926829,80.337289 L17.2445122,42.6575838 C18.0498374,40.7548382 19.1882927,39.013659 20.5999593,37.5114913 C21.1736585,36.8941561 21.7987805,36.3182139 22.4650407,35.7885607 L41.9685772,20.2817399 C41.9685772,20.277289 41.9730488,20.277289 41.9730488,20.277289 L54.6592683,25.5938497 Z" id="Path" fill="#FF3F62"></path>
                <path d="M33,43.3258521 C32.8606463,43.4575606 32.7311504,43.5940984 32.6012064,43.7301972 C31.19109,45.2070883 30.0502714,46.9293963 29.2432745,48.8062422 L19.7958983,71 L7,65.7241971 L16.7301163,43.076045 C17.5371133,41.1991991 18.6779319,39.4817205 20.0925291,38 L33,43.3258521 Z" id="Path" fill="#FF728B"></path>
                <path d="M103.816049,47 L42,20.6749608 L48.5607856,4.91277984 C50.2609271,0.828492565 54.9127585,-1.08881363 58.9509818,0.630721424 L106.142628,20.7286543 C110.180851,22.4481894 112.076534,27.1530843 110.376392,31.2373716 L103.816049,47 Z" id="Path" fill="#FF3F62"></path>
                <path d="M64,2.76761362 L54.568201,26 L42,20.6591444 L48.5660666,4.91021554 C50.271596,0.828451579 54.9305707,-1.08746019 58.9746688,0.629482912 L64,2.76761362 Z" id="Path" fill="#FF0C38"></path>
            </g>
            <g id="cart" transform="translate(0.000000, 11.000000)">
                <path d="M215,85 L182.11315,185.789009 C180.709652,190.086974 176.692544,193 172.155736,193 L55.3830789,193 C50.864499,193 46.8562822,190.11002 45.4394469,185.834657 L12,85 L215,85 Z" id="Path" fill="#7ED63E"></path>
                <path d="M216,85 L182.9869,185.789009 C181.578014,190.086974 177.545485,193 172.991261,193 L75.5451597,193 C71.0092335,193 66.9856295,190.11002 65.5633551,185.834657 L32,85 L216,85 Z" id="Path" fill="#A4E276"></path>
                <path d="M218.34083,83.4196435 C217.691446,82.5279299 216.652432,82 215.547146,82 L32.3484824,82 C30.4416965,82 28.8956299,83.5420878 28.8956299,85.4439665 C28.8956299,87.3458452 30.4416965,88.887933 32.3484824,88.887933 L210.793302,88.887933 L198.347377,127.053719 L177.937163,127.053719 L183.517414,100.903441 C183.91416,99.0428208 182.724365,97.2136988 180.859389,96.8179732 C178.994858,96.4213602 177.160127,97.6085371 176.76338,99.4691575 L170.877118,127.053719 L147.615843,127.053719 L149.973639,100.489526 C150.141768,98.5947458 148.738476,96.9231155 146.838362,96.7554201 C144.943586,96.5868374 143.26275,97.9874045 143.094622,99.8826287 L140.683007,127.053719 L117.452422,127.053719 L117.452422,100.186077 C117.452422,98.2841988 115.906355,96.7421109 113.999569,96.7421109 C112.092784,96.7421109 110.546717,98.2841988 110.546717,100.186077 L110.546717,127.053719 L88.0851623,127.053719 L85.6735474,99.8826287 C85.5054194,97.9878482 83.8250282,96.5903865 81.9298067,96.7554201 C80.0301374,96.9231155 78.6268462,98.5947458 78.7945295,100.489526 L81.1523256,127.053719 L76.928219,127.053719 C75.0214331,127.053719 73.4753665,128.595807 73.4753665,130.497685 C73.4753665,132.399564 75.0214331,133.941652 76.928219,133.941652 L81.7634578,133.941652 L83.9380032,158.442481 L64.5890418,158.442481 L59.3606145,133.941652 L63.117254,133.941652 C65.0240398,133.941652 66.5701064,132.399564 66.5701064,130.497685 C66.5701064,128.595807 65.0240398,127.053719 63.117254,127.053719 L57.8910506,127.053719 L52.004789,99.4691575 C51.6075975,97.6089808 49.7755353,96.4195857 47.9087799,96.8179732 C46.0438037,97.2136988 44.8535637,99.0428208 45.2507552,100.903441 L50.831006,127.053719 L29.8790457,127.053719 L17.2302993,88.887933 L18.5375173,88.887933 C20.4443032,88.887933 21.9903698,87.3458452 21.9903698,85.4439665 C21.9903698,83.5420878 20.4443032,82 18.5375173,82 L12.4528823,82 C11.3444825,82 10.3036896,82.5310354 9.65430607,83.4267418 C9.0053673,84.3228918 8.82656443,85.4750212 9.17438494,86.5246702 L42.6269787,187.465763 C44.5168628,193.16785 49.8320228,197 55.8530538,197 L68.540941,197 C68.5436097,197 68.5458336,197 68.5489471,197 C68.5529502,197 68.5578428,197 68.5618458,197 L90.5123445,197 C90.5136789,197 90.515458,197 90.5167924,197 C90.5185715,197 90.5199058,197 90.521685,197 L138.246039,197 C138.247818,197 138.249153,197 138.250932,197 C138.252266,197 138.254045,197 138.25538,197 L160.205878,197 C160.209881,197 160.214774,197 160.218777,197 C160.221446,197 160.22367,197 160.226783,197 L172.682494,197 C178.734215,197 184.057825,193.143006 185.929918,187.402766 L196.179948,155.969196 C196.769731,154.160481 195.77742,152.217344 193.964038,151.62908 C192.150212,151.041258 190.202951,152.030572 189.612724,153.839287 L188.11158,158.443369 L171.239172,158.443369 L176.467599,133.942539 L196.101667,133.942539 L193.885312,140.739083 C193.295529,142.547797 194.28784,144.490934 196.101222,145.079199 C196.456159,145.194102 196.815544,145.249113 197.169591,145.249113 C198.624922,145.249113 199.977953,144.324126 200.452536,142.869435 L218.830536,86.5100301 C219.172574,85.4603811 218.990658,84.3122444 218.34083,83.4196435 Z M140.071875,133.941652 L137.897329,158.442481 L117.452422,158.442481 L117.452422,133.941652 L140.071875,133.941652 Z M142.019136,190.11118 L144.218144,165.330414 L162.708674,165.330414 L157.420201,190.11118 L142.019136,190.11118 Z M135.086744,190.11118 L117.452422,190.11118 L117.452422,165.330414 L137.285752,165.330414 L135.086744,190.11118 Z M93.6814253,190.11118 L91.4824168,165.330414 L110.547606,165.330414 L110.547606,190.11118 L93.6814253,190.11118 Z M88.6962945,133.941652 L110.547162,133.941652 L110.547162,158.442481 L90.8712846,158.442481 L88.6962945,133.941652 Z M84.5500249,165.330414 L86.7490334,190.11118 L71.3470786,190.11118 L66.0590504,165.330414 L84.5500249,165.330414 Z M52.3005699,133.941652 L57.5289971,158.442481 L40.2816366,158.442481 L32.1621182,133.941652 L52.3005699,133.941652 Z M49.1835288,185.303468 L42.5642643,165.329971 L58.9990058,165.329971 L64.2874787,190.110736 L55.8534985,190.110736 C52.8169632,190.11118 50.1366993,188.179134 49.1835288,185.303468 Z M185.865869,165.330414 L179.363583,185.271526 C178.419753,188.166268 175.735486,190.110736 172.683383,190.110736 L164.482025,190.110736 L169.770498,165.329971 L185.865869,165.329971 L185.865869,165.330414 Z M164.179127,158.442481 L144.830166,158.442481 L147.004711,133.941652 L169.407999,133.941652 L164.179127,158.442481 Z" id="Shape" fill="#5EAC24"></path>
                <path d="M228,85.0020313 C228,89.1277591 226.335867,92.8792826 223.653305,95.5939574 C220.970742,98.3131461 217.26975,100 213.199594,100 L14.8004062,100 C6.66053906,100 0,93.253487 0,85.0024827 C0,80.8767548 1.66413281,77.1252313 4.34669531,74.4060426 C7.02925781,71.6868539 10.73025,70 14.8004063,70 L213.199594,70 C221.062922,70 227.548008,76.3027941 227.976844,84.1660523 C227.990648,84.4414017 228,84.7217165 228,85.0020313 Z" id="Path" fill="#4E901E"></path>
                <path d="M228,84 L29.7604643,84 C21.9034637,84 15.4280459,77.7710863 15,70 L213.235086,70 C221.091642,70 227.571509,76.2289137 228,84 Z" id="Path" fill="#5EAC24"></path>
                <path d="M124,9.99635236 L124,79.9987677 C124,82.5931257 122.999246,84.9625624 121.364592,86.7441872 C119.532538,88.741417 116.906445,90 114,90 C108.499401,90 104,85.4998004 104,79.9992113 L104,9.99635236 C104,4.499756 108.499845,0 114,0 C116.750299,0 119.252628,1.12504991 121.061616,2.93861616 C121.162756,3.03976419 121.263452,3.14534852 121.364592,3.25536918 C122.999246,5.03255764 124,7.40687432 124,9.99635236 Z" id="Path" fill="#47821C"></path>
                <path d="M124,9.78225661 L124,80.2132799 C124,82.8235225 123.051543,85.2074668 121.502312,87 C119.948877,85.2074668 119,82.8235225 119,80.2132799 L119,9.78225661 C119,7.17647746 119.948457,4.78806976 121.502312,3 C123.051543,4.78806976 124,7.17692381 124,9.78225661 Z" id="Path" fill="#4E901E"></path>
                <circle id="Oval" fill="#A4E276" cx="114" cy="80" r="3"></circle>
            </g>
        </g>
    </g>
</svg>